HIERARCHY
ROOT Hips
{
  OFFSET -125.086 92.215 135.881
  CHANNELS 6 Xposition Yposition Zposition Zrotation Xrotation Yrotation
  JOINT LeftUpLeg
  {
    OFFSET 8.64259 1.95398 -2.38835
    CHANNELS 3 Zrotation Xrotation Yrotation
    JOINT LeftLeg
    {
      OFFSET 43.7702 0 0
      CHANNELS 3 Zrotation Xrotation Yrotation
      JOINT LeftFoot
      {
        OFFSET 40.6238 0 0
        CHANNELS 3 Zrotation Xrotation Yrotation
        JOINT LeftToeBase
        {
          OFFSET 12.7242 0 0
          CHANNELS 3 Zrotation Xrotation Yrotation
          End Site
          {
            OFFSET 0 0 0
          }
        }
      }
    }
  }
  JOINT RightUpLeg
  {
    OFFSET -8.2249 1.95398 -2.59336
    CHANNELS 3 Zrotation Xrotation Yrotation
    JOINT RightLeg
    {
      OFFSET 43.5653 0 0
      CHANNELS 3 Zrotation Xrotation Yrotation
      JOINT RightFoot
      {
        OFFSET 40.6238 0 0
        CHANNELS 3 Zrotation Xrotation Yrotation
        JOINT RightToeBase
        {
          OFFSET 12.7242 0 0
          CHANNELS 3 Zrotation Xrotation Yrotation
          End Site
          {
            OFFSET 0 0 0
          }
        }
      }
    }
  }
  JOINT Spine
  {
    OFFSET 0.165834 0.87714 6.61349
    CHANNELS 3 Zrotation Xrotation Yrotation
    JOINT Spine1
    {
      OFFSET 7.38963 1.71661e-005 0
      CHANNELS 3 Zrotation Xrotation Yrotation
      JOINT Spine2
      {
        OFFSET 11.9445 1.14441e-005 0
        CHANNELS 3 Zrotation Xrotation Yrotation
        JOINT Spine3
        {
          OFFSET 14.7254 4.19617e-005 0
          CHANNELS 3 Zrotation Xrotation Yrotation
          JOINT Spine4
          {
            OFFSET 10.9679 0 0
            CHANNELS 3 Zrotation Xrotation Yrotation
            JOINT RightShoulder
            {
              OFFSET 2.46616 -1.6653 3.69651
              CHANNELS 3 Zrotation Xrotation Yrotation
              JOINT RightArm
              {
                OFFSET 13.0012 0 0
                CHANNELS 3 Zrotation Xrotation Yrotation
                JOINT RightForeArm
                {
                  OFFSET 28.7848 1.52588e-005 0
                  CHANNELS 3 Zrotation Xrotation Yrotation
                  JOINT RightHand
                  {
                    OFFSET 26.5688 1.52588e-005 0
                    CHANNELS 3 Zrotation Xrotation Yrotation
                    End Site
                    {
                      OFFSET 0 0 0
                    }
                  }
                }
              }
            }
            JOINT LeftShoulder
            {
              OFFSET 2.38034 -1.29275 -3.7523
              CHANNELS 3 Zrotation Xrotation Yrotation
              JOINT LeftArm
              {
                OFFSET 16.3182 6.10352e-005 0
                CHANNELS 3 Zrotation Xrotation Yrotation
                JOINT LeftForeArm
                {
                  OFFSET 27.0901 0 0
                  CHANNELS 3 Zrotation Xrotation Yrotation
                  JOINT LeftHand
                  {
                    OFFSET 24.5451 1.52588e-005 0
                    CHANNELS 3 Zrotation Xrotation Yrotation
                    End Site
                    {
                      OFFSET 0 0 0
                    }
                  }
                }
              }
            }
            JOINT Neck
            {
              OFFSET 5.0226 -0.0266342 0
              CHANNELS 3 Zrotation Xrotation Yrotation
              JOINT Head
              {
                OFFSET 6.69363 2.86102e-005 0
                CHANNELS 3 Zrotation Xrotation Yrotation
                End Site
                {
                  OFFSET 0 0 0
                }
              }
            }
          }
        }
      }
    }
  }
}
MOTION
Frames:	12
Frame Time:	0.0416667
-279.215 55.1798 -247.249 99.2865 5.51842 88.1631 -179.565 20.4237 124.488 -2.9415 -46.6101 108.798 15.7066 -2.36769 151.702 -48.4057 -20.2767 28.8063 -129.177 32.3228 44.2289 -99.7267 -4.70745 -43.3855 73.9853 -13.2944 35.6061 91.1432 19.3107 59.6251 -4.13409 5.05265 -89.5171 16.8989 -7.89852 2.34738 5.25041 -7.7873 2.70248 -17.4796 -8.23747 -0.147456 2.53302 -8.23751 -0.147457 133.79 -42.0795 -29.961 62.9863 -39.4844 102.398 -6.2709 51.3259 -157.832 -6.53387 -4.34116 67.0984 -19.1708 -66.9036 167.628 -80.5211 71.2198 132.39 50.0994 -16.9691 -94.8165 81.2599 -25.8539 -33.0592 67.3251 -7.53651 -13.9318 -11.1394 16.1039 116.121 
-279.988 55.5245 -247.88 99.3871 5.57366 88.0626 -173.747 17.7588 118.697 -5.87061 -38.9991 106.823 8.55423 -7.58812 152.923 -48.941 -21.463 29.8074 -129.44 31.7672 45.2143 -100.668 -4.74489 -43.9524 74.2267 -13.4848 34.6073 92.0257 18.9992 58.307 -4.14861 5.06594 -89.5183 16.873 -7.92836 2.34755 5.22454 -7.81715 2.70268 -17.5069 -8.26589 -0.156779 2.50578 -8.26589 -0.156787 133.683 -41.9736 -30.0576 62.9675 -39.4131 102.611 -6.18678 51.3277 -158.107 -6.52844 -4.29295 66.5307 -17.2219 -67.1542 169.631 -80.8997 71.3387 133.334 49.8867 -16.9879 -94.7867 81.6437 -26.0339 -33.0722 59.4844 3.36859 -13.3034 -11.5374 27.5148 117.502 
-282.204 56.5273 -249.678 99.6803 5.73109 87.769 -160.013 7.70362 110.219 -26.1154 -23.0966 100.461 -15.0236 -30.902 143.588 -49.8229 -25.1556 33.1303 -130.123 30.0099 48.0872 -103.577 -4.86944 -45.4755 74.8006 -13.9663 31.4464 94.5186 17.9728 54.5166 -4.19097 5.10479 -89.5222 16.7971 -8.01563 2.34805 5.14864 -7.90444 2.70325 -17.5869 -8.34868 -0.184753 2.42575 -8.34869 -0.184757 133.38 -41.6731 -30.3311 62.8747 -39.222 103.194 -5.93889 51.3103 -158.907 -6.51427 -4.16209 64.9727 -11.2542 -67.7253 175.761 -81.9626 71.7042 136.076 49.1623 -17.0313 -94.7543 82.7457 -26.614 -33.1722 58.254 2.74255 -11.5651 -7.14267 35.597 118.018 
-285.66 58.0864 -252.465 100.153 5.97623 87.2945 -150.363 -0.765289 109.61 85.6411 15.8603 92.3361 -57.3405 62.7803 -142.019 -48.5253 -31.6393 40.155 -130.773 26.6316 52.6472 -108.832 -5.17901 -47.3721 75.3636 -14.4353 25.5583 98.2745 15.9843 48.5765 -4.2595 5.16824 -89.5294 16.6729 -8.15724 2.34544 5.02495 -8.04609 2.70418 -17.7176 -8.48241 -0.232045 2.29501 -8.48242 -0.232042 132.917 -41.2064 -30.7503 62.6248 -38.9603 104.032 -5.53601 51.2205 -160.186 -6.49544 -3.97932 62.7281 -0.985675 -68.0742 -173.683 -83.6575 72.3553 140.567 47.6141 -17.0611 -94.8833 84.465 -27.7729 -33.5726 55.7644 3.47021 -8.32156 0.566246 49.3911 115.607 
-290.109 59.9658 -256.062 100.794 6.29276 86.6506 -149.304 -2.4779 113.039 -56.364 -9.629 96.5593 -39.9108 -47.5591 120.969 -39.3739 -39.8551 54.4968 -130.137 20.6153 58.5293 -116.967 -6.25008 -48.3167 75.6743 -14.3472 16.1125 102.808 12.6888 40.8405 -4.35148 5.25483 -89.5394 16.5031 -8.34771 2.33811 4.85632 -8.23674 2.70547 -17.8962 -8.66165 -0.297581 2.11644 -8.66167 -0.297583 132.329 -40.5958 -31.2789 62.1437 -38.6761 105.003 -5.00109 51.004 -161.882 -6.47364 -3.77283 60.1038 12.8802 -67.2859 -159.357 -86.4281 73.3185 147.244 44.5932 -17.0299 -95.4357 86.5978 -29.9443 -34.7525 55.0747 4.30048 -5.03457 10.2935 60.3523 108.603 
-295.301 61.8044 -260.328 101.589 6.66176 85.8472 -148.901 -3.3232 117.785 -79.6885 -5.93617 91.3197 -48.2208 -50.5714 105.629 -15.2078 -42.9886 80.2774 -125.499 10.5947 65.8179 -128.209 -10.2163 -46.2097 76.0812 -13.0937 2.34215 107.499 7.72101 31.6257 -4.46025 5.3612 -89.549 16.2941 -8.57203 2.33188 4.64885 -8.46108 2.70931 -18.1157 -8.87351 -0.372494 1.89699 -8.87349 -0.372493 131.644 -39.8414 -31.8796 61.4647 -38.3607 106.039 -4.39393 50.6617 -163.896 -6.44689 -3.55974 57.3276 27.2298 -64.429 -144.266 -92.1526 74.3639 157.891 38.8924 -16.934 -96.7584 88.5315 -33.9848 -37.781 55.7967 -1.78071 -0.630455 44.2206 73.4913 74.9109 
-301.203 63.0499 -265.423 102.526 7.06279 84.895 -148.187 -4.02408 123.698 -60.1958 0.00113982 89.9993 -25.5681 -24.789 139.699 14.0241 -30.8392 103.65 -114.142 -3.41986 75.8343 -140.709 -20.3492 -40.6833 78.4459 -10.8775 -14.6967 111.01 1.67141 22.3601 -4.56746 5.48155 -89.547 16.0576 -8.78812 2.34317 4.4137 -8.67646 2.7303 -18.3626 -9.08276 -0.42823 1.65001 -9.08277 -0.428234 130.89 -38.904 -32.4906 60.8772 -37.8443 107.219 -3.84306 50.3467 -166.071 -6.41021 -3.34796 54.543 37.7557 -59.3078 -132.46 -104.598 74.1415 176.062 27.9699 -16.9501 -99.4436 87.7254 -41.4346 -45.7569 53.9343 55.8943 -2.62294 1.62164 29.1648 148.287 
-308.09 63.7385 -271.837 103.587 7.47464 83.8065 -147.181 -4.41226 129.79 -42.7523 3.70863 86.3241 -25.4809 15.6459 135.009 34.5701 -9.78564 107.476 -101.591 -13.2081 87.5408 -150.335 -31.2075 -36.0582 84.6202 -10.473 -28.2024 111.287 -2.33531 16.768 -4.64293 5.61413 -89.516 15.796 -8.92762 2.3963 4.15295 -8.8135 2.78964 -18.6312 -9.23161 -0.420561 1.38146 -9.23161 -0.420562 130.156 -37.7748 -32.9678 60.7805 -36.8352 108.655 -3.50867 50.3182 -168.221 -6.35777 -3.1398 51.8291 41.755 -52.7353 -126.163 -120.56 68.4666 -161.508 5.37047 -17.1887 -105.765 70.5214 -52.4991 -71.9419 57.0926 29.6531 2.66979 3.5681 66.4422 132.957 
-315.667 64.7731 -279.231 104.752 7.87569 82.5959 -145.967 -4.34089 135.659 -58.6615 8.94209 84.7873 -20.8764 18.9897 126.791 50.9577 7.52051 97.2708 -99.3207 -18.0031 93.9139 -156.938 -32.357 -33.8115 91.5665 -14.1337 -31.4943 108.01 -2.99384 15.7448 -4.67939 5.76502 -89.4525 15.497 -8.97485 2.49497 3.85413 -8.85632 2.89029 -18.9327 -9.30626 -0.341052 1.07998 -9.30625 -0.341055 129.548 -36.5692 -33.205 61.1154 -35.3375 110.214 -3.40911 50.5973 -170.248 -6.2889 -2.93752 49.2237 39.116 -46.0234 -125.117 -122.863 49.9495 -149.698 -39.6202 -11.7791 -124.436 17.9939 -38.4784 -129.809 70.46 -34.0018 13.8475 152.292 41.7479 -35.3828 
-323.688 66.0875 -287.38 105.999 8.24581 81.279 -144.744 -3.79274 141.325 -64.9459 14.1487 83.6575 -16.4972 27.1362 119.269 65.9538 15.8731 80.7345 -105.208 -15.7714 84.1488 -158.607 -27.7288 -29.0169 93.5704 -22.9934 -17.1238 100.934 -1.00398 18.8367 -5.85584 5.47883 -90.041 16.1022 -11.5818 1.80167 4.48174 -11.4912 2.31634 -18.4712 -11.5802 -1.81139 1.54148 -11.5802 -1.81139 122.738 -31.5658 -41.9893 56.1828 -43.6536 111.404 0.00024316 45.3272 -174.803 -6.30574 -2.7962 46.8022 55.4366 -30.6853 -107.974 -126.352 75.9444 -144.131 -92.7647 17.7771 -101.534 -8.84435 15.5923 -138.956 146.004 -74.8556 85.751 151.015 -22.2984 -58.2724 
-331.687 67.7328 -296.021 107.306 8.56717 79.8734 -143.548 -2.8022 146.867 -66.7813 19.6517 81.9561 -13.9021 35.1077 110.416 78.7526 18.4466 64.5859 -100.311 -2.53851 62.6485 -153.074 -20.8054 -17.466 95.9569 -30.3369 27.7459 87.6124 3.89479 29.9441 -6.07288 5.45088 -90.1075 16.1741 -12.0417 1.75897 4.55785 -11.9525 2.29478 -18.4275 -12.0052 -1.99601 1.58518 -12.0052 -1.99602 120.344 -27.8112 -44.3623 58.0837 -43.0627 114.101 0.144151 45.5463 -176.962 -6.2195 -2.61302 44.4485 43.5787 -22.3842 -111.342 -92.8687 11.4921 -145.852 117.312 40.0706 -35.4817 -51.4151 55.7349 -103.365 135.838 -73.5287 72.6128 151.021 -25.5156 -57.076 
-338.798 69.228 -304.039 108.644 8.82469 78.3994 -142.904 -1.51391 153.864 -66.0795 28.3406 78.2591 -15.0119 41.4901 99.9259 88.7054 17.2973 50.7267 -93.931 11.0082 42.3632 -149.922 1.22364 -13.3317 72.9978 -37.3903 72.0884 61.5037 4.96787 51.7764 -6.34194 5.39894 -90.2222 16.2884 -12.6283 1.64271 4.67811 -12.5435 2.20566 -18.351 -12.5285 -2.29117 1.66163 -12.5285 -2.29116 117.886 -23.5675 -46.9047 59.4022 -43.1359 116.065 13.3291 44.0509 163.188 -6.13336 -2.44479 42.2283 26.7421 -14.9349 -116.787 65.752 -2.4147 -55.3412 -69.9345 -80.3599 3.64628 -76.9326 55.5974 -73.9367 140.379 -73.1396 73.8159 148.775 -30.4847 -59.868 
